<svg width="579" height="598" viewBox="0 0 579 598" fill="none" xmlns="http://www.w3.org/2000/svg">
<path d="M106.067 31.3787C110.57 14.5746 127.843 4.6022 144.647 9.10486L465.961 95.2008C482.765 99.7034 492.738 116.976 488.235 133.78L391.732 493.934C387.229 510.738 369.957 520.71 353.152 516.208L31.8383 430.112C15.0341 425.609 5.06176 408.337 9.56442 391.532L106.067 31.3787Z" stroke="#F0B70D"/>
<path d="M326.52 137.981C338.821 125.679 358.766 125.679 371.067 137.981L555.338 322.252C567.64 334.553 567.64 354.498 555.338 366.8L347.8 574.338C335.498 586.64 315.553 586.64 303.252 574.338L118.981 390.067C106.68 377.766 106.68 357.821 118.981 345.52L326.52 137.981Z" stroke="#F38160"/>
</svg>
